solid mesh
  facet normal 0.866025 0.5 0
    outer loop
      vertex 0.0205537 0 0
      vertex 0.0102768 0.0178 0
      vertex 0.0102768 0.0178 0.0162
    endloop
  endfacet
  facet normal 0.866025 0.5 -0
    outer loop
      vertex 0.0205537 0 0
      vertex 0.0102768 0.0178 0.0162
      vertex 0.0205537 0 0.0162
    endloop
  endfacet
  facet normal 0 1 0
    outer loop
      vertex 0.0102768 0.0178 0
      vertex -0.0102768 0.0178 0
      vertex -0.0102768 0.0178 0.0162
    endloop
  endfacet
  facet normal 0 1 -0
    outer loop
      vertex 0.0102768 0.0178 0
      vertex -0.0102768 0.0178 0.0162
      vertex 0.0102768 0.0178 0.0162
    endloop
  endfacet
  facet normal -0.866025 0.5 0
    outer loop
      vertex -0.0102768 0.0178 0
      vertex -0.0205537 2.5171e-18 0
      vertex -0.0205537 2.5171e-18 0.0162
    endloop
  endfacet
  facet normal -0.866025 0.5 0
    outer loop
      vertex -0.0102768 0.0178 0
      vertex -0.0205537 2.5171e-18 0.0162
      vertex -0.0102768 0.0178 0.0162
    endloop
  endfacet
  facet normal -0.866025 -0.5 0
    outer loop
      vertex -0.0205537 2.5171e-18 0
      vertex -0.0102768 -0.0178 0
      vertex -0.0102768 -0.0178 0.0162
    endloop
  endfacet
  facet normal -0.866025 -0.5 0
    outer loop
      vertex -0.0205537 2.5171e-18 0
      vertex -0.0102768 -0.0178 0.0162
      vertex -0.0205537 2.5171e-18 0.0162
    endloop
  endfacet
  facet normal -3.37599e-16 -1 0
    outer loop
      vertex -0.0102768 -0.0178 0
      vertex 0.0102768 -0.0178 0
      vertex 0.0102768 -0.0178 0.0162
    endloop
  endfacet
  facet normal -3.37599e-16 -1 0
    outer loop
      vertex -0.0102768 -0.0178 0
      vertex 0.0102768 -0.0178 0.0162
      vertex -0.0102768 -0.0178 0.0162
    endloop
  endfacet
  facet normal 0.866025 -0.5 0
    outer loop
      vertex 0.0102768 -0.0178 0
      vertex 0.0205537 0 0
      vertex 0.0205537 0 0.0162
    endloop
  endfacet
  facet normal 0.866025 -0.5 0
    outer loop
      vertex 0.0102768 -0.0178 0
      vertex 0.0205537 0 0.0162
      vertex 0.0102768 -0.0178 0.0162
    endloop
  endfacet
  facet normal 0 0 0
    outer loop
      vertex 0.0205537 0 0
      vertex 0.0205537 0 0
      vertex 0.0205537 0 0.0162
    endloop
  endfacet
  facet normal 0 0 0
    outer loop
      vertex 0.0205537 0 0
      vertex 0.0205537 0 0.0162
      vertex 0.0205537 0 0.0162
    endloop
  endfacet
  facet normal 0.829502 0.478913 -0.287348
    outer loop
      vertex 0.0205537 0 0.0162
      vertex 0.0102768 0.0178 0.0162
      vertex 0.0124275 0.021525 0.0286167
    endloop
  endfacet
  facet normal 0.829502 0.478913 -0.287348
    outer loop
      vertex 0.0205537 0 0.0162
      vertex 0.0124275 0.021525 0.0286167
      vertex 0.0248549 0 0.0286167
    endloop
  endfacet
  facet normal 0 0.957826 -0.287348
    outer loop
      vertex 0.0102768 0.0178 0.0162
      vertex -0.0102768 0.0178 0.0162
      vertex -0.0124275 0.021525 0.0286167
    endloop
  endfacet
  facet normal 1.26186e-16 0.957826 -0.287348
    outer loop
      vertex 0.0102768 0.0178 0.0162
      vertex -0.0124275 0.021525 0.0286167
      vertex 0.0124275 0.021525 0.0286167
    endloop
  endfacet
  facet normal -0.829502 0.478913 -0.287348
    outer loop
      vertex -0.0102768 0.0178 0.0162
      vertex -0.0205537 2.5171e-18 0.0162
      vertex -0.0248549 3.04385e-18 0.0286167
    endloop
  endfacet
  facet normal -0.829502 0.478913 -0.287348
    outer loop
      vertex -0.0102768 0.0178 0.0162
      vertex -0.0248549 3.04385e-18 0.0286167
      vertex -0.0124275 0.021525 0.0286167
    endloop
  endfacet
  facet normal -0.829502 -0.478913 -0.287348
    outer loop
      vertex -0.0205537 2.5171e-18 0.0162
      vertex -0.0102768 -0.0178 0.0162
      vertex -0.0124275 -0.021525 0.0286167
    endloop
  endfacet
  facet normal -0.829502 -0.478913 -0.287348
    outer loop
      vertex -0.0205537 2.5171e-18 0.0162
      vertex -0.0124275 -0.021525 0.0286167
      vertex -0.0248549 3.04385e-18 0.0286167
    endloop
  endfacet
  facet normal -3.23361e-16 -0.957826 -0.287348
    outer loop
      vertex -0.0102768 -0.0178 0.0162
      vertex 0.0102768 -0.0178 0.0162
      vertex 0.0124275 -0.021525 0.0286167
    endloop
  endfacet
  facet normal -2.52372e-16 -0.957826 -0.287348
    outer loop
      vertex -0.0102768 -0.0178 0.0162
      vertex 0.0124275 -0.021525 0.0286167
      vertex -0.0124275 -0.021525 0.0286167
    endloop
  endfacet
  facet normal 0.829502 -0.478913 -0.287348
    outer loop
      vertex 0.0102768 -0.0178 0.0162
      vertex 0.0205537 0 0.0162
      vertex 0.0248549 0 0.0286167
    endloop
  endfacet
  facet normal 0.829502 -0.478913 -0.287348
    outer loop
      vertex 0.0102768 -0.0178 0.0162
      vertex 0.0248549 0 0.0286167
      vertex 0.0124275 -0.021525 0.0286167
    endloop
  endfacet
  facet normal 0 0 0
    outer loop
      vertex 0.0205537 0 0.0162
      vertex 0.0205537 0 0.0162
      vertex 0.0248549 0 0.0286167
    endloop
  endfacet
  facet normal 0 0 0
    outer loop
      vertex 0.0205537 0 0.0162
      vertex 0.0248549 0 0.0286167
      vertex 0.0248549 0 0.0286167
    endloop
  endfacet
  facet normal 0.829502 0.478913 -0.287348
    outer loop
      vertex 0.0248549 0 0.0286167
      vertex 0.0124275 0.021525 0.0286167
      vertex 0.0145781 0.02525 0.0410333
    endloop
  endfacet
  facet normal 0.829502 0.478913 -0.287348
    outer loop
      vertex 0.0248549 0 0.0286167
      vertex 0.0145781 0.02525 0.0410333
      vertex 0.0291562 0 0.0410333
    endloop
  endfacet
  facet normal 1.33701e-16 0.957826 -0.287348
    outer loop
      vertex 0.0124275 0.021525 0.0286167
      vertex -0.0124275 0.021525 0.0286167
      vertex -0.0145781 0.02525 0.0410333
    endloop
  endfacet
  facet normal 1.0757e-16 0.957826 -0.287348
    outer loop
      vertex 0.0124275 0.021525 0.0286167
      vertex -0.0145781 0.02525 0.0410333
      vertex 0.0145781 0.02525 0.0410333
    endloop
  endfacet
  facet normal -0.829502 0.478913 -0.287348
    outer loop
      vertex -0.0124275 0.021525 0.0286167
      vertex -0.0248549 3.04385e-18 0.0286167
      vertex -0.0291562 3.5706e-18 0.0410333
    endloop
  endfacet
  facet normal -0.829502 0.478913 -0.287348
    outer loop
      vertex -0.0124275 0.021525 0.0286167
      vertex -0.0291562 3.5706e-18 0.0410333
      vertex -0.0145781 0.02525 0.0410333
    endloop
  endfacet
  facet normal -0.829502 -0.478913 -0.287348
    outer loop
      vertex -0.0248549 3.04385e-18 0.0286167
      vertex -0.0124275 -0.021525 0.0286167
      vertex -0.0145781 -0.02525 0.0410333
    endloop
  endfacet
  facet normal -0.829502 -0.478913 -0.287348
    outer loop
      vertex -0.0248549 3.04385e-18 0.0286167
      vertex -0.0145781 -0.02525 0.0410333
      vertex -0.0291562 3.5706e-18 0.0410333
    endloop
  endfacet
  facet normal -2.67402e-16 -0.957826 -0.287348
    outer loop
      vertex -0.0124275 -0.021525 0.0286167
      vertex 0.0124275 -0.021525 0.0286167
      vertex 0.0145781 -0.02525 0.0410333
    endloop
  endfacet
  facet normal -2.33069e-16 -0.957826 -0.287348
    outer loop
      vertex -0.0124275 -0.021525 0.0286167
      vertex 0.0145781 -0.02525 0.0410333
      vertex -0.0145781 -0.02525 0.0410333
    endloop
  endfacet
  facet normal 0.829502 -0.478913 -0.287348
    outer loop
      vertex 0.0124275 -0.021525 0.0286167
      vertex 0.0248549 0 0.0286167
      vertex 0.0291562 0 0.0410333
    endloop
  endfacet
  facet normal 0.829502 -0.478913 -0.287348
    outer loop
      vertex 0.0124275 -0.021525 0.0286167
      vertex 0.0291562 0 0.0410333
      vertex 0.0145781 -0.02525 0.0410333
    endloop
  endfacet
  facet normal 0 0 0
    outer loop
      vertex 0.0248549 0 0.0286167
      vertex 0.0248549 0 0.0286167
      vertex 0.0291562 0 0.0410333
    endloop
  endfacet
  facet normal 0 0 0
    outer loop
      vertex 0.0248549 0 0.0286167
      vertex 0.0291562 0 0.0410333
      vertex 0.0291562 0 0.0410333
    endloop
  endfacet
  facet normal 0.829502 0.478913 -0.287348
    outer loop
      vertex 0.0291562 0 0.0410333
      vertex 0.0145781 0.02525 0.0410333
      vertex 0.0167287 0.028975 0.05345
    endloop
  endfacet
  facet normal 0.829502 0.478913 -0.287348
    outer loop
      vertex 0.0291562 0 0.0410333
      vertex 0.0167287 0.028975 0.05345
      vertex 0.0334574 0 0.05345
    endloop
  endfacet
  facet normal 1.13977e-16 0.957826 -0.287348
    outer loop
      vertex 0.0145781 0.02525 0.0410333
      vertex -0.0145781 0.02525 0.0410333
      vertex -0.0167287 0.028975 0.05345
    endloop
  endfacet
  facet normal 9.37412e-17 0.957826 -0.287348
    outer loop
      vertex 0.0145781 0.02525 0.0410333
      vertex -0.0167287 0.028975 0.05345
      vertex 0.0167287 0.028975 0.05345
    endloop
  endfacet
  facet normal -0.829502 0.478913 -0.287348
    outer loop
      vertex -0.0145781 0.02525 0.0410333
      vertex -0.0291562 3.5706e-18 0.0410333
      vertex -0.0334574 4.09736e-18 0.05345
    endloop
  endfacet
  facet normal -0.829502 0.478913 -0.287348
    outer loop
      vertex -0.0145781 0.02525 0.0410333
      vertex -0.0334574 4.09736e-18 0.05345
      vertex -0.0167287 0.028975 0.05345
    endloop
  endfacet
  facet normal -0.829502 -0.478913 -0.287348
    outer loop
      vertex -0.0291562 3.5706e-18 0.0410333
      vertex -0.0145781 -0.02525 0.0410333
      vertex -0.0167287 -0.028975 0.05345
    endloop
  endfacet
  facet normal -0.829502 -0.478913 -0.287348
    outer loop
      vertex -0.0291562 3.5706e-18 0.0410333
      vertex -0.0167287 -0.028975 0.05345
      vertex -0.0334574 4.09736e-18 0.05345
    endloop
  endfacet
  facet normal -2.27953e-16 -0.957826 -0.287348
    outer loop
      vertex -0.0145781 -0.02525 0.0410333
      vertex 0.0145781 -0.02525 0.0410333
      vertex 0.0167287 -0.028975 0.05345
    endloop
  endfacet
  facet normal -2.03106e-16 -0.957826 -0.287348
    outer loop
      vertex -0.0145781 -0.02525 0.0410333
      vertex 0.0167287 -0.028975 0.05345
      vertex -0.0167287 -0.028975 0.05345
    endloop
  endfacet
  facet normal 0.829502 -0.478913 -0.287348
    outer loop
      vertex 0.0145781 -0.02525 0.0410333
      vertex 0.0291562 0 0.0410333
      vertex 0.0334574 0 0.05345
    endloop
  endfacet
  facet normal 0.829502 -0.478913 -0.287348
    outer loop
      vertex 0.0145781 -0.02525 0.0410333
      vertex 0.0334574 0 0.05345
      vertex 0.0167287 -0.028975 0.05345
    endloop
  endfacet
  facet normal 0 0 0
    outer loop
      vertex 0.0291562 0 0.0410333
      vertex 0.0291562 0 0.0410333
      vertex 0.0334574 0 0.05345
    endloop
  endfacet
  facet normal 0 0 0
    outer loop
      vertex 0.0291562 0 0.0410333
      vertex 0.0334574 0 0.05345
      vertex 0.0334574 0 0.05345
    endloop
  endfacet
  facet normal 0.829502 0.478913 -0.287348
    outer loop
      vertex 0.0334574 0 0.05345
      vertex 0.0167287 0.028975 0.05345
      vertex 0.0188794 0.0327 0.0658667
    endloop
  endfacet
  facet normal 0.829502 0.478913 -0.287348
    outer loop
      vertex 0.0334574 0 0.05345
      vertex 0.0188794 0.0327 0.0658667
      vertex 0.0377587 0 0.0658667
    endloop
  endfacet
  facet normal 9.9324e-17 0.957826 -0.287348
    outer loop
      vertex 0.0167287 0.028975 0.05345
      vertex -0.0167287 0.028975 0.05345
      vertex -0.0188794 0.0327 0.0658667
    endloop
  endfacet
  facet normal 0 0.957826 -0.287348
    outer loop
      vertex 0.0167287 0.028975 0.05345
      vertex -0.0188794 0.0327 0.0658667
      vertex 0.0188794 0.0327 0.0658667
    endloop
  endfacet
  facet normal -0.829502 0.478913 -0.287348
    outer loop
      vertex -0.0167287 0.028975 0.05345
      vertex -0.0334574 4.09736e-18 0.05345
      vertex -0.0377587 4.62411e-18 0.0658667
    endloop
  endfacet
  facet normal -0.829502 0.478913 -0.287348
    outer loop
      vertex -0.0167287 0.028975 0.05345
      vertex -0.0377587 4.62411e-18 0.0658667
      vertex -0.0188794 0.0327 0.0658667
    endloop
  endfacet
  facet normal -0.829502 -0.478913 -0.287348
    outer loop
      vertex -0.0334574 4.09736e-18 0.05345
      vertex -0.0167287 -0.028975 0.05345
      vertex -0.0188794 -0.0327 0.0658667
    endloop
  endfacet
  facet normal -0.829502 -0.478913 -0.287348
    outer loop
      vertex -0.0334574 4.09736e-18 0.05345
      vertex -0.0188794 -0.0327 0.0658667
      vertex -0.0377587 4.62411e-18 0.0658667
    endloop
  endfacet
  facet normal -1.98648e-16 -0.957826 -0.287348
    outer loop
      vertex -0.0167287 -0.028975 0.05345
      vertex 0.0167287 -0.028975 0.05345
      vertex 0.0188794 -0.0327 0.0658667
    endloop
  endfacet
  facet normal -3.59938e-16 -0.957826 -0.287348
    outer loop
      vertex -0.0167287 -0.028975 0.05345
      vertex 0.0188794 -0.0327 0.0658667
      vertex -0.0188794 -0.0327 0.0658667
    endloop
  endfacet
  facet normal 0.829502 -0.478913 -0.287348
    outer loop
      vertex 0.0167287 -0.028975 0.05345
      vertex 0.0334574 0 0.05345
      vertex 0.0377587 0 0.0658667
    endloop
  endfacet
  facet normal 0.829502 -0.478913 -0.287348
    outer loop
      vertex 0.0167287 -0.028975 0.05345
      vertex 0.0377587 0 0.0658667
      vertex 0.0188794 -0.0327 0.0658667
    endloop
  endfacet
  facet normal 0 0 0
    outer loop
      vertex 0.0334574 0 0.05345
      vertex 0.0334574 0 0.05345
      vertex 0.0377587 0 0.0658667
    endloop
  endfacet
  facet normal 0 0 0
    outer loop
      vertex 0.0334574 0 0.05345
      vertex 0.0377587 0 0.0658667
      vertex 0.0377587 0 0.0658667
    endloop
  endfacet
  facet normal 0.829502 0.478913 -0.287348
    outer loop
      vertex 0.0377587 0 0.0658667
      vertex 0.0188794 0.0327 0.0658667
      vertex 0.02103 0.036425 0.0782833
    endloop
  endfacet
  facet normal 0.829502 0.478913 -0.287348
    outer loop
      vertex 0.0377587 0 0.0658667
      vertex 0.02103 0.036425 0.0782833
      vertex 0.04206 0 0.0782833
    endloop
  endfacet
  facet normal 0 0.957826 -0.287348
    outer loop
      vertex 0.0188794 0.0327 0.0658667
      vertex -0.0188794 0.0327 0.0658667
      vertex -0.02103 0.036425 0.0782833
    endloop
  endfacet
  facet normal 1.61565e-16 0.957826 -0.287348
    outer loop
      vertex 0.0188794 0.0327 0.0658667
      vertex -0.02103 0.036425 0.0782833
      vertex 0.02103 0.036425 0.0782833
    endloop
  endfacet
  facet normal -0.829502 0.478913 -0.287348
    outer loop
      vertex -0.0188794 0.0327 0.0658667
      vertex -0.0377587 4.62411e-18 0.0658667
      vertex -0.04206 5.15086e-18 0.0782833
    endloop
  endfacet
  facet normal -0.829502 0.478913 -0.287348
    outer loop
      vertex -0.0188794 0.0327 0.0658667
      vertex -0.04206 5.15086e-18 0.0782833
      vertex -0.02103 0.036425 0.0782833
    endloop
  endfacet
  facet normal -0.829502 -0.478913 -0.287348
    outer loop
      vertex -0.0377587 4.62411e-18 0.0658667
      vertex -0.0188794 -0.0327 0.0658667
      vertex -0.02103 -0.036425 0.0782833
    endloop
  endfacet
  facet normal -0.829502 -0.478913 -0.287348
    outer loop
      vertex -0.0377587 4.62411e-18 0.0658667
      vertex -0.02103 -0.036425 0.0782833
      vertex -0.04206 5.15086e-18 0.0782833
    endloop
  endfacet
  facet normal -3.52038e-16 -0.957826 -0.287348
    outer loop
      vertex -0.0188794 -0.0327 0.0658667
      vertex 0.0188794 -0.0327 0.0658667
      vertex 0.02103 -0.036425 0.0782833
    endloop
  endfacet
  facet normal -1.61565e-16 -0.957826 -0.287348
    outer loop
      vertex -0.0188794 -0.0327 0.0658667
      vertex 0.02103 -0.036425 0.0782833
      vertex -0.02103 -0.036425 0.0782833
    endloop
  endfacet
  facet normal 0.829502 -0.478913 -0.287348
    outer loop
      vertex 0.0188794 -0.0327 0.0658667
      vertex 0.0377587 0 0.0658667
      vertex 0.04206 0 0.0782833
    endloop
  endfacet
  facet normal 0.829502 -0.478913 -0.287348
    outer loop
      vertex 0.0188794 -0.0327 0.0658667
      vertex 0.04206 0 0.0782833
      vertex 0.02103 -0.036425 0.0782833
    endloop
  endfacet
  facet normal 0 0 0
    outer loop
      vertex 0.0377587 0 0.0658667
      vertex 0.0377587 0 0.0658667
      vertex 0.04206 0 0.0782833
    endloop
  endfacet
  facet normal 0 0 0
    outer loop
      vertex 0.0377587 0 0.0658667
      vertex 0.04206 0 0.0782833
      vertex 0.04206 0 0.0782833
    endloop
  endfacet
  facet normal -0 -0 -1
    outer loop
      vertex 0.0205537 0 0
      vertex 0.0102768 0.0178 0
      vertex 0.00293624 1.35086e-18 0
    endloop
  endfacet
  facet normal -0 -0 -1
    outer loop
      vertex 0.0102768 0.0178 0
      vertex -0.0102768 0.0178 0
      vertex 0.00293624 1.35086e-18 0
    endloop
  endfacet
  facet normal -0 -0 -1
    outer loop
      vertex -0.0102768 0.0178 0
      vertex -0.0205537 2.5171e-18 0
      vertex 0.00293624 1.35086e-18 0
    endloop
  endfacet
  facet normal -0 -0 -1
    outer loop
      vertex -0.0205537 2.5171e-18 0
      vertex -0.0102768 -0.0178 0
      vertex 0.00293624 1.35086e-18 0
    endloop
  endfacet
  facet normal 0 -0 -1
    outer loop
      vertex -0.0102768 -0.0178 0
      vertex 0.0102768 -0.0178 0
      vertex 0.00293624 1.35086e-18 0
    endloop
  endfacet
  facet normal -0 0 -1
    outer loop
      vertex 0.0102768 -0.0178 0
      vertex 0.0205537 0 0
      vertex 0.00293624 1.35086e-18 0
    endloop
  endfacet
  facet normal 0 0 1
    outer loop
      vertex 0.0463612 0 0.0907
      vertex 0.0231806 0.04015 0.0907
      vertex 0.00662303 2.79363e-18 0.0907
    endloop
  endfacet
  facet normal 0 0 1
    outer loop
      vertex 0.0231806 0.04015 0.0907
      vertex -0.0231806 0.04015 0.0907
      vertex 0.00662303 2.79363e-18 0.0907
    endloop
  endfacet
  facet normal 0 0 1
    outer loop
      vertex -0.0231806 0.04015 0.0907
      vertex -0.0463612 5.67761e-18 0.0907
      vertex 0.00662303 2.79363e-18 0.0907
    endloop
  endfacet
  facet normal 0 0 1
    outer loop
      vertex -0.0463612 5.67761e-18 0.0907
      vertex -0.0231806 -0.04015 0.0907
      vertex 0.00662303 2.79363e-18 0.0907
    endloop
  endfacet
  facet normal -0 0 1
    outer loop
      vertex -0.0231806 -0.04015 0.0907
      vertex 0.0231806 -0.04015 0.0907
      vertex 0.00662303 2.79363e-18 0.0907
    endloop
  endfacet
  facet normal 0 -0 1
    outer loop
      vertex 0.0231806 -0.04015 0.0907
      vertex 0.0463612 0 0.0907
      vertex 0.00662303 2.79363e-18 0.0907
    endloop
  endfacet
endsolid mesh
