solid mesh
  facet normal 0.707107 0.707107 0
    outer loop
      vertex 0.07125 0.0295127 0
      vertex 0.0295127 0.07125 0
      vertex 0.0295127 0.07125 0.01
    endloop
  endfacet
  facet normal 0.707107 0.707107 -0
    outer loop
      vertex 0.07125 0.0295127 0
      vertex 0.0295127 0.07125 0.01
      vertex 0.07125 0.0295127 0.01
    endloop
  endfacet
  facet normal 0 1 0
    outer loop
      vertex 0.0295127 0.07125 0
      vertex -0.0295127 0.07125 0
      vertex -0.0295127 0.07125 0.01
    endloop
  endfacet
  facet normal 0 1 -0
    outer loop
      vertex 0.0295127 0.07125 0
      vertex -0.0295127 0.07125 0.01
      vertex 0.0295127 0.07125 0.01
    endloop
  endfacet
  facet normal -0.707107 0.707107 0
    outer loop
      vertex -0.0295127 0.07125 0
      vertex -0.07125 0.0295127 0
      vertex -0.07125 0.0295127 0.01
    endloop
  endfacet
  facet normal -0.707107 0.707107 0
    outer loop
      vertex -0.0295127 0.07125 0
      vertex -0.07125 0.0295127 0.01
      vertex -0.0295127 0.07125 0.01
    endloop
  endfacet
  facet normal -1 0 0
    outer loop
      vertex -0.07125 0.0295127 0
      vertex -0.07125 -0.0295127 0
      vertex -0.07125 -0.0295127 0.01
    endloop
  endfacet
  facet normal -1 0 0
    outer loop
      vertex -0.07125 0.0295127 0
      vertex -0.07125 -0.0295127 0.01
      vertex -0.07125 0.0295127 0.01
    endloop
  endfacet
  facet normal -0.707107 -0.707107 0
    outer loop
      vertex -0.07125 -0.0295127 0
      vertex -0.0295127 -0.07125 0
      vertex -0.0295127 -0.07125 0.01
    endloop
  endfacet
  facet normal -0.707107 -0.707107 0
    outer loop
      vertex -0.07125 -0.0295127 0
      vertex -0.0295127 -0.07125 0.01
      vertex -0.07125 -0.0295127 0.01
    endloop
  endfacet
  facet normal 2.35115e-16 -1 0
    outer loop
      vertex -0.0295127 -0.07125 0
      vertex 0.0295127 -0.07125 0
      vertex 0.0295127 -0.07125 0.01
    endloop
  endfacet
  facet normal 2.35115e-16 -1 0
    outer loop
      vertex -0.0295127 -0.07125 0
      vertex 0.0295127 -0.07125 0.01
      vertex -0.0295127 -0.07125 0.01
    endloop
  endfacet
  facet normal 0.707107 -0.707107 0
    outer loop
      vertex 0.0295127 -0.07125 0
      vertex 0.07125 -0.0295127 0
      vertex 0.07125 -0.0295127 0.01
    endloop
  endfacet
  facet normal 0.707107 -0.707107 0
    outer loop
      vertex 0.0295127 -0.07125 0
      vertex 0.07125 -0.0295127 0.01
      vertex 0.0295127 -0.07125 0.01
    endloop
  endfacet
  facet normal 1 0 0
    outer loop
      vertex 0.07125 -0.0295127 0
      vertex 0.07125 0.0295127 0
      vertex 0.07125 0.0295127 0.01
    endloop
  endfacet
  facet normal 1 0 0
    outer loop
      vertex 0.07125 -0.0295127 0
      vertex 0.07125 0.0295127 0.01
      vertex 0.07125 -0.0295127 0.01
    endloop
  endfacet
  facet normal 0 0 0
    outer loop
      vertex 0.07125 0.0295127 0
      vertex 0.07125 0.0295127 0
      vertex 0.07125 0.0295127 0.01
    endloop
  endfacet
  facet normal 0 0 0
    outer loop
      vertex 0.07125 0.0295127 0
      vertex 0.07125 0.0295127 0.01
      vertex 0.07125 0.0295127 0.01
    endloop
  endfacet
  facet normal 0.701539 0.701539 0.12524
    outer loop
      vertex 0.07125 0.0295127 0.01
      vertex 0.0295127 0.07125 0.01
      vertex 0.0272884 0.06588 0.05254
    endloop
  endfacet
  facet normal 0.701539 0.701539 0.12524
    outer loop
      vertex 0.07125 0.0295127 0.01
      vertex 0.0272884 0.06588 0.05254
      vertex 0.06588 0.0272884 0.05254
    endloop
  endfacet
  facet normal 0 0.992126 0.12524
    outer loop
      vertex 0.0295127 0.07125 0.01
      vertex -0.0295127 0.07125 0.01
      vertex -0.0272884 0.06588 0.05254
    endloop
  endfacet
  facet normal 0 0.992126 0.12524
    outer loop
      vertex 0.0295127 0.07125 0.01
      vertex -0.0272884 0.06588 0.05254
      vertex 0.0272884 0.06588 0.05254
    endloop
  endfacet
  facet normal -0.701539 0.701539 0.12524
    outer loop
      vertex -0.0295127 0.07125 0.01
      vertex -0.07125 0.0295127 0.01
      vertex -0.06588 0.0272884 0.05254
    endloop
  endfacet
  facet normal -0.701539 0.701539 0.12524
    outer loop
      vertex -0.0295127 0.07125 0.01
      vertex -0.06588 0.0272884 0.05254
      vertex -0.0272884 0.06588 0.05254
    endloop
  endfacet
  facet normal -0.992126 0 0.12524
    outer loop
      vertex -0.07125 0.0295127 0.01
      vertex -0.07125 -0.0295127 0.01
      vertex -0.06588 -0.0272884 0.05254
    endloop
  endfacet
  facet normal -0.992126 2.43238e-16 0.12524
    outer loop
      vertex -0.07125 0.0295127 0.01
      vertex -0.06588 -0.0272884 0.05254
      vertex -0.06588 0.0272884 0.05254
    endloop
  endfacet
  facet normal -0.701539 -0.701539 0.12524
    outer loop
      vertex -0.07125 -0.0295127 0.01
      vertex -0.0295127 -0.07125 0.01
      vertex -0.0272884 -0.06588 0.05254
    endloop
  endfacet
  facet normal -0.701539 -0.701539 0.12524
    outer loop
      vertex -0.07125 -0.0295127 0.01
      vertex -0.0272884 -0.06588 0.05254
      vertex -0.06588 -0.0272884 0.05254
    endloop
  endfacet
  facet normal 2.33264e-16 -0.992126 0.12524
    outer loop
      vertex -0.0295127 -0.07125 0.01
      vertex 0.0295127 -0.07125 0.01
      vertex 0.0272884 -0.06588 0.05254
    endloop
  endfacet
  facet normal 2.43238e-16 -0.992126 0.12524
    outer loop
      vertex -0.0295127 -0.07125 0.01
      vertex 0.0272884 -0.06588 0.05254
      vertex -0.0272884 -0.06588 0.05254
    endloop
  endfacet
  facet normal 0.701539 -0.701539 0.12524
    outer loop
      vertex 0.0295127 -0.07125 0.01
      vertex 0.07125 -0.0295127 0.01
      vertex 0.06588 -0.0272884 0.05254
    endloop
  endfacet
  facet normal 0.701539 -0.701539 0.12524
    outer loop
      vertex 0.0295127 -0.07125 0.01
      vertex 0.06588 -0.0272884 0.05254
      vertex 0.0272884 -0.06588 0.05254
    endloop
  endfacet
  facet normal 0.992126 -0 0.12524
    outer loop
      vertex 0.07125 -0.0295127 0.01
      vertex 0.07125 0.0295127 0.01
      vertex 0.06588 0.0272884 0.05254
    endloop
  endfacet
  facet normal 0.992126 2.43238e-16 0.12524
    outer loop
      vertex 0.07125 -0.0295127 0.01
      vertex 0.06588 0.0272884 0.05254
      vertex 0.06588 -0.0272884 0.05254
    endloop
  endfacet
  facet normal 0 -0 0
    outer loop
      vertex 0.07125 0.0295127 0.01
      vertex 0.07125 0.0295127 0.01
      vertex 0.06588 0.0272884 0.05254
    endloop
  endfacet
  facet normal 0 0 0
    outer loop
      vertex 0.07125 0.0295127 0.01
      vertex 0.06588 0.0272884 0.05254
      vertex 0.06588 0.0272884 0.05254
    endloop
  endfacet
  facet normal 0.701539 0.701539 0.12524
    outer loop
      vertex 0.06588 0.0272884 0.05254
      vertex 0.0272884 0.06588 0.05254
      vertex 0.0250641 0.06051 0.09508
    endloop
  endfacet
  facet normal 0.701539 0.701539 0.12524
    outer loop
      vertex 0.06588 0.0272884 0.05254
      vertex 0.0250641 0.06051 0.09508
      vertex 0.06051 0.0250641 0.09508
    endloop
  endfacet
  facet normal 0 0.992126 0.12524
    outer loop
      vertex 0.0272884 0.06588 0.05254
      vertex -0.0272884 0.06588 0.05254
      vertex -0.0250641 0.06051 0.09508
    endloop
  endfacet
  facet normal 0 0.992126 0.12524
    outer loop
      vertex 0.0272884 0.06588 0.05254
      vertex -0.0250641 0.06051 0.09508
      vertex 0.0250641 0.06051 0.09508
    endloop
  endfacet
  facet normal -0.701539 0.701539 0.12524
    outer loop
      vertex -0.0272884 0.06588 0.05254
      vertex -0.06588 0.0272884 0.05254
      vertex -0.06051 0.0250641 0.09508
    endloop
  endfacet
  facet normal -0.701539 0.701539 0.12524
    outer loop
      vertex -0.0272884 0.06588 0.05254
      vertex -0.06051 0.0250641 0.09508
      vertex -0.0250641 0.06051 0.09508
    endloop
  endfacet
  facet normal -0.992126 2.52278e-16 0.12524
    outer loop
      vertex -0.06588 0.0272884 0.05254
      vertex -0.06588 -0.0272884 0.05254
      vertex -0.06051 -0.0250641 0.09508
    endloop
  endfacet
  facet normal -0.992126 1.38717e-16 0.12524
    outer loop
      vertex -0.06588 0.0272884 0.05254
      vertex -0.06051 -0.0250641 0.09508
      vertex -0.06051 0.0250641 0.09508
    endloop
  endfacet
  facet normal -0.701539 -0.701539 0.12524
    outer loop
      vertex -0.06588 -0.0272884 0.05254
      vertex -0.0272884 -0.06588 0.05254
      vertex -0.0250641 -0.06051 0.09508
    endloop
  endfacet
  facet normal -0.701539 -0.701539 0.12524
    outer loop
      vertex -0.06588 -0.0272884 0.05254
      vertex -0.0250641 -0.06051 0.09508
      vertex -0.06051 -0.0250641 0.09508
    endloop
  endfacet
  facet normal 2.52278e-16 -0.992126 0.12524
    outer loop
      vertex -0.0272884 -0.06588 0.05254
      vertex 0.0272884 -0.06588 0.05254
      vertex 0.0250641 -0.06051 0.09508
    endloop
  endfacet
  facet normal 2.77435e-16 -0.992126 0.12524
    outer loop
      vertex -0.0272884 -0.06588 0.05254
      vertex 0.0250641 -0.06051 0.09508
      vertex -0.0250641 -0.06051 0.09508
    endloop
  endfacet
  facet normal 0.701539 -0.701539 0.12524
    outer loop
      vertex 0.0272884 -0.06588 0.05254
      vertex 0.06588 -0.0272884 0.05254
      vertex 0.06051 -0.0250641 0.09508
    endloop
  endfacet
  facet normal 0.701539 -0.701539 0.12524
    outer loop
      vertex 0.0272884 -0.06588 0.05254
      vertex 0.06051 -0.0250641 0.09508
      vertex 0.0250641 -0.06051 0.09508
    endloop
  endfacet
  facet normal 0.992126 2.52278e-16 0.12524
    outer loop
      vertex 0.06588 -0.0272884 0.05254
      vertex 0.06588 0.0272884 0.05254
      vertex 0.06051 0.0250641 0.09508
    endloop
  endfacet
  facet normal 0.992126 1.38717e-16 0.12524
    outer loop
      vertex 0.06588 -0.0272884 0.05254
      vertex 0.06051 0.0250641 0.09508
      vertex 0.06051 -0.0250641 0.09508
    endloop
  endfacet
  facet normal 0 -0 0
    outer loop
      vertex 0.06588 0.0272884 0.05254
      vertex 0.06588 0.0272884 0.05254
      vertex 0.06051 0.0250641 0.09508
    endloop
  endfacet
  facet normal 0 0 0
    outer loop
      vertex 0.06588 0.0272884 0.05254
      vertex 0.06051 0.0250641 0.09508
      vertex 0.06051 0.0250641 0.09508
    endloop
  endfacet
  facet normal 0.701539 0.701539 0.12524
    outer loop
      vertex 0.06051 0.0250641 0.09508
      vertex 0.0250641 0.06051 0.09508
      vertex 0.0228397 0.05514 0.13762
    endloop
  endfacet
  facet normal 0.701539 0.701539 0.12524
    outer loop
      vertex 0.06051 0.0250641 0.09508
      vertex 0.0228397 0.05514 0.13762
      vertex 0.05514 0.0228397 0.13762
    endloop
  endfacet
  facet normal 0 0.992126 0.12524
    outer loop
      vertex 0.0250641 0.06051 0.09508
      vertex -0.0250641 0.06051 0.09508
      vertex -0.0228397 0.05514 0.13762
    endloop
  endfacet
  facet normal 0 0.992126 0.12524
    outer loop
      vertex 0.0250641 0.06051 0.09508
      vertex -0.0228397 0.05514 0.13762
      vertex 0.0228397 0.05514 0.13762
    endloop
  endfacet
  facet normal -0.701539 0.701539 0.12524
    outer loop
      vertex -0.0250641 0.06051 0.09508
      vertex -0.06051 0.0250641 0.09508
      vertex -0.05514 0.0228397 0.13762
    endloop
  endfacet
  facet normal -0.701539 0.701539 0.12524
    outer loop
      vertex -0.0250641 0.06051 0.09508
      vertex -0.05514 0.0228397 0.13762
      vertex -0.0228397 0.05514 0.13762
    endloop
  endfacet
  facet normal -0.992126 1.37333e-16 0.12524
    outer loop
      vertex -0.06051 0.0250641 0.09508
      vertex -0.06051 -0.0250641 0.09508
      vertex -0.05514 -0.0228397 0.13762
    endloop
  endfacet
  facet normal -0.992126 1.52227e-16 0.12524
    outer loop
      vertex -0.06051 0.0250641 0.09508
      vertex -0.05514 -0.0228397 0.13762
      vertex -0.05514 0.0228397 0.13762
    endloop
  endfacet
  facet normal -0.701539 -0.701539 0.12524
    outer loop
      vertex -0.06051 -0.0250641 0.09508
      vertex -0.0250641 -0.06051 0.09508
      vertex -0.0228397 -0.05514 0.13762
    endloop
  endfacet
  facet normal -0.701539 -0.701539 0.12524
    outer loop
      vertex -0.06051 -0.0250641 0.09508
      vertex -0.0228397 -0.05514 0.13762
      vertex -0.05514 -0.0228397 0.13762
    endloop
  endfacet
  facet normal 2.74667e-16 -0.992126 0.12524
    outer loop
      vertex -0.0250641 -0.06051 0.09508
      vertex 0.0250641 -0.06051 0.09508
      vertex 0.0228397 -0.05514 0.13762
    endloop
  endfacet
  facet normal 2.90615e-16 -0.992126 0.12524
    outer loop
      vertex -0.0250641 -0.06051 0.09508
      vertex 0.0228397 -0.05514 0.13762
      vertex -0.0228397 -0.05514 0.13762
    endloop
  endfacet
  facet normal 0.701539 -0.701539 0.12524
    outer loop
      vertex 0.0250641 -0.06051 0.09508
      vertex 0.06051 -0.0250641 0.09508
      vertex 0.05514 -0.0228397 0.13762
    endloop
  endfacet
  facet normal 0.701539 -0.701539 0.12524
    outer loop
      vertex 0.0250641 -0.06051 0.09508
      vertex 0.05514 -0.0228397 0.13762
      vertex 0.0228397 -0.05514 0.13762
    endloop
  endfacet
  facet normal 0.992126 1.37333e-16 0.12524
    outer loop
      vertex 0.06051 -0.0250641 0.09508
      vertex 0.06051 0.0250641 0.09508
      vertex 0.05514 0.0228397 0.13762
    endloop
  endfacet
  facet normal 0.992126 1.52227e-16 0.12524
    outer loop
      vertex 0.06051 -0.0250641 0.09508
      vertex 0.05514 0.0228397 0.13762
      vertex 0.05514 -0.0228397 0.13762
    endloop
  endfacet
  facet normal 0 -0 0
    outer loop
      vertex 0.06051 0.0250641 0.09508
      vertex 0.06051 0.0250641 0.09508
      vertex 0.05514 0.0228397 0.13762
    endloop
  endfacet
  facet normal 0 0 0
    outer loop
      vertex 0.06051 0.0250641 0.09508
      vertex 0.05514 0.0228397 0.13762
      vertex 0.05514 0.0228397 0.13762
    endloop
  endfacet
  facet normal 0.701539 0.701539 0.12524
    outer loop
      vertex 0.05514 0.0228397 0.13762
      vertex 0.0228397 0.05514 0.13762
      vertex 0.0206154 0.04977 0.18016
    endloop
  endfacet
  facet normal 0.701539 0.701539 0.12524
    outer loop
      vertex 0.05514 0.0228397 0.13762
      vertex 0.0206154 0.04977 0.18016
      vertex 0.04977 0.0206154 0.18016
    endloop
  endfacet
  facet normal 0 0.992126 0.12524
    outer loop
      vertex 0.0228397 0.05514 0.13762
      vertex -0.0228397 0.05514 0.13762
      vertex -0.0206154 0.04977 0.18016
    endloop
  endfacet
  facet normal 0 0.992126 0.12524
    outer loop
      vertex 0.0228397 0.05514 0.13762
      vertex -0.0206154 0.04977 0.18016
      vertex 0.0206154 0.04977 0.18016
    endloop
  endfacet
  facet normal -0.701539 0.701539 0.12524
    outer loop
      vertex -0.0228397 0.05514 0.13762
      vertex -0.05514 0.0228397 0.13762
      vertex -0.04977 0.0206154 0.18016
    endloop
  endfacet
  facet normal -0.701539 0.701539 0.12524
    outer loop
      vertex -0.0228397 0.05514 0.13762
      vertex -0.04977 0.0206154 0.18016
      vertex -0.0206154 0.04977 0.18016
    endloop
  endfacet
  facet normal -0.992126 1.50708e-16 0.12524
    outer loop
      vertex -0.05514 0.0228397 0.13762
      vertex -0.05514 -0.0228397 0.13762
      vertex -0.04977 -0.0206154 0.18016
    endloop
  endfacet
  facet normal -0.992126 1.68652e-16 0.12524
    outer loop
      vertex -0.05514 0.0228397 0.13762
      vertex -0.04977 -0.0206154 0.18016
      vertex -0.04977 0.0206154 0.18016
    endloop
  endfacet
  facet normal -0.701539 -0.701539 0.12524
    outer loop
      vertex -0.05514 -0.0228397 0.13762
      vertex -0.0228397 -0.05514 0.13762
      vertex -0.0206154 -0.04977 0.18016
    endloop
  endfacet
  facet normal -0.701539 -0.701539 0.12524
    outer loop
      vertex -0.05514 -0.0228397 0.13762
      vertex -0.0206154 -0.04977 0.18016
      vertex -0.04977 -0.0206154 0.18016
    endloop
  endfacet
  facet normal 3.01416e-16 -0.992126 0.12524
    outer loop
      vertex -0.0228397 -0.05514 0.13762
      vertex 0.0228397 -0.05514 0.13762
      vertex 0.0206154 -0.04977 0.18016
    endloop
  endfacet
  facet normal 3.37303e-16 -0.992126 0.12524
    outer loop
      vertex -0.0228397 -0.05514 0.13762
      vertex 0.0206154 -0.04977 0.18016
      vertex -0.0206154 -0.04977 0.18016
    endloop
  endfacet
  facet normal 0.701539 -0.701539 0.12524
    outer loop
      vertex 0.0228397 -0.05514 0.13762
      vertex 0.05514 -0.0228397 0.13762
      vertex 0.04977 -0.0206154 0.18016
    endloop
  endfacet
  facet normal 0.701539 -0.701539 0.12524
    outer loop
      vertex 0.0228397 -0.05514 0.13762
      vertex 0.04977 -0.0206154 0.18016
      vertex 0.0206154 -0.04977 0.18016
    endloop
  endfacet
  facet normal 0.992126 1.50708e-16 0.12524
    outer loop
      vertex 0.05514 -0.0228397 0.13762
      vertex 0.05514 0.0228397 0.13762
      vertex 0.04977 0.0206154 0.18016
    endloop
  endfacet
  facet normal 0.992126 1.68652e-16 0.12524
    outer loop
      vertex 0.05514 -0.0228397 0.13762
      vertex 0.04977 0.0206154 0.18016
      vertex 0.04977 -0.0206154 0.18016
    endloop
  endfacet
  facet normal 0 -0 0
    outer loop
      vertex 0.05514 0.0228397 0.13762
      vertex 0.05514 0.0228397 0.13762
      vertex 0.04977 0.0206154 0.18016
    endloop
  endfacet
  facet normal 0 0 0
    outer loop
      vertex 0.05514 0.0228397 0.13762
      vertex 0.04977 0.0206154 0.18016
      vertex 0.04977 0.0206154 0.18016
    endloop
  endfacet
  facet normal 0.701539 0.701539 0.12524
    outer loop
      vertex 0.04977 0.0206154 0.18016
      vertex 0.0206154 0.04977 0.18016
      vertex 0.0183911 0.0444 0.2227
    endloop
  endfacet
  facet normal 0.701539 0.701539 0.12524
    outer loop
      vertex 0.04977 0.0206154 0.18016
      vertex 0.0183911 0.0444 0.2227
      vertex 0.0444 0.0183911 0.2227
    endloop
  endfacet
  facet normal 0 0.992126 0.12524
    outer loop
      vertex 0.0206154 0.04977 0.18016
      vertex -0.0206154 0.04977 0.18016
      vertex -0.0183911 0.0444 0.2227
    endloop
  endfacet
  facet normal 0 0.992126 0.12524
    outer loop
      vertex 0.0206154 0.04977 0.18016
      vertex -0.0183911 0.0444 0.2227
      vertex 0.0183911 0.0444 0.2227
    endloop
  endfacet
  facet normal -0.701539 0.701539 0.12524
    outer loop
      vertex -0.0206154 0.04977 0.18016
      vertex -0.04977 0.0206154 0.18016
      vertex -0.0444 0.0183911 0.2227
    endloop
  endfacet
  facet normal -0.701539 0.701539 0.12524
    outer loop
      vertex -0.0206154 0.04977 0.18016
      vertex -0.0444 0.0183911 0.2227
      vertex -0.0183911 0.0444 0.2227
    endloop
  endfacet
  facet normal -0.992126 1.66969e-16 0.12524
    outer loop
      vertex -0.04977 0.0206154 0.18016
      vertex -0.04977 -0.0206154 0.18016
      vertex -0.0444 -0.0183911 0.2227
    endloop
  endfacet
  facet normal -0.992126 0 0.12524
    outer loop
      vertex -0.04977 0.0206154 0.18016
      vertex -0.0444 -0.0183911 0.2227
      vertex -0.0444 0.0183911 0.2227
    endloop
  endfacet
  facet normal -0.701539 -0.701539 0.12524
    outer loop
      vertex -0.04977 -0.0206154 0.18016
      vertex -0.0206154 -0.04977 0.18016
      vertex -0.0183911 -0.0444 0.2227
    endloop
  endfacet
  facet normal -0.701539 -0.701539 0.12524
    outer loop
      vertex -0.04977 -0.0206154 0.18016
      vertex -0.0183911 -0.0444 0.2227
      vertex -0.0444 -0.0183911 0.2227
    endloop
  endfacet
  facet normal 3.33938e-16 -0.992126 0.12524
    outer loop
      vertex -0.0206154 -0.04977 0.18016
      vertex 0.0206154 -0.04977 0.18016
      vertex 0.0183911 -0.0444 0.2227
    endloop
  endfacet
  facet normal 1.89049e-16 -0.992126 0.12524
    outer loop
      vertex -0.0206154 -0.04977 0.18016
      vertex 0.0183911 -0.0444 0.2227
      vertex -0.0183911 -0.0444 0.2227
    endloop
  endfacet
  facet normal 0.701539 -0.701539 0.12524
    outer loop
      vertex 0.0206154 -0.04977 0.18016
      vertex 0.04977 -0.0206154 0.18016
      vertex 0.0444 -0.0183911 0.2227
    endloop
  endfacet
  facet normal 0.701539 -0.701539 0.12524
    outer loop
      vertex 0.0206154 -0.04977 0.18016
      vertex 0.0444 -0.0183911 0.2227
      vertex 0.0183911 -0.0444 0.2227
    endloop
  endfacet
  facet normal 0.992126 1.66969e-16 0.12524
    outer loop
      vertex 0.04977 -0.0206154 0.18016
      vertex 0.04977 0.0206154 0.18016
      vertex 0.0444 0.0183911 0.2227
    endloop
  endfacet
  facet normal 0.992126 0 0.12524
    outer loop
      vertex 0.04977 -0.0206154 0.18016
      vertex 0.0444 0.0183911 0.2227
      vertex 0.0444 -0.0183911 0.2227
    endloop
  endfacet
  facet normal 0 -0 0
    outer loop
      vertex 0.04977 0.0206154 0.18016
      vertex 0.04977 0.0206154 0.18016
      vertex 0.0444 0.0183911 0.2227
    endloop
  endfacet
  facet normal 0 0 0
    outer loop
      vertex 0.04977 0.0206154 0.18016
      vertex 0.0444 0.0183911 0.2227
      vertex 0.0444 0.0183911 0.2227
    endloop
  endfacet
  facet normal -0 -0 -1
    outer loop
      vertex 0.07125 0.0295127 0
      vertex 0.0295127 0.07125 0
      vertex 0.00791667 0.00327919 0
    endloop
  endfacet
  facet normal -0 -0 -1
    outer loop
      vertex 0.0295127 0.07125 0
      vertex -0.0295127 0.07125 0
      vertex 0.00791667 0.00327919 0
    endloop
  endfacet
  facet normal -0 -0 -1
    outer loop
      vertex -0.0295127 0.07125 0
      vertex -0.07125 0.0295127 0
      vertex 0.00791667 0.00327919 0
    endloop
  endfacet
  facet normal -0 -0 -1
    outer loop
      vertex -0.07125 0.0295127 0
      vertex -0.07125 -0.0295127 0
      vertex 0.00791667 0.00327919 0
    endloop
  endfacet
  facet normal 0 -0 -1
    outer loop
      vertex -0.07125 -0.0295127 0
      vertex -0.0295127 -0.07125 0
      vertex 0.00791667 0.00327919 0
    endloop
  endfacet
  facet normal -0 -0 -1
    outer loop
      vertex -0.0295127 -0.07125 0
      vertex 0.0295127 -0.07125 0
      vertex 0.00791667 0.00327919 0
    endloop
  endfacet
  facet normal -0 0 -1
    outer loop
      vertex 0.0295127 -0.07125 0
      vertex 0.07125 -0.0295127 0
      vertex 0.00791667 0.00327919 0
    endloop
  endfacet
  facet normal -0 0 -1
    outer loop
      vertex 0.07125 -0.0295127 0
      vertex 0.07125 0.0295127 0
      vertex 0.00791667 0.00327919 0
    endloop
  endfacet
  facet normal 0 0 1
    outer loop
      vertex 0.0444 0.0183911 0.2227
      vertex 0.0183911 0.0444 0.2227
      vertex 0.00493333 0.00204345 0.2227
    endloop
  endfacet
  facet normal 0 0 1
    outer loop
      vertex 0.0183911 0.0444 0.2227
      vertex -0.0183911 0.0444 0.2227
      vertex 0.00493333 0.00204345 0.2227
    endloop
  endfacet
  facet normal 0 0 1
    outer loop
      vertex -0.0183911 0.0444 0.2227
      vertex -0.0444 0.0183911 0.2227
      vertex 0.00493333 0.00204345 0.2227
    endloop
  endfacet
  facet normal 0 0 1
    outer loop
      vertex -0.0444 0.0183911 0.2227
      vertex -0.0444 -0.0183911 0.2227
      vertex 0.00493333 0.00204345 0.2227
    endloop
  endfacet
  facet normal -0 0 1
    outer loop
      vertex -0.0444 -0.0183911 0.2227
      vertex -0.0183911 -0.0444 0.2227
      vertex 0.00493333 0.00204345 0.2227
    endloop
  endfacet
  facet normal 0 0 1
    outer loop
      vertex -0.0183911 -0.0444 0.2227
      vertex 0.0183911 -0.0444 0.2227
      vertex 0.00493333 0.00204345 0.2227
    endloop
  endfacet
  facet normal 0 -0 1
    outer loop
      vertex 0.0183911 -0.0444 0.2227
      vertex 0.0444 -0.0183911 0.2227
      vertex 0.00493333 0.00204345 0.2227
    endloop
  endfacet
  facet normal 0 -0 1
    outer loop
      vertex 0.0444 -0.0183911 0.2227
      vertex 0.0444 0.0183911 0.2227
      vertex 0.00493333 0.00204345 0.2227
    endloop
  endfacet
endsolid mesh
