solid mesh
  facet normal 0.707107 0.707107 0
    outer loop
      vertex 0.07125 0.0295127 0
      vertex 0.0295127 0.07125 0
      vertex 0.0295127 0.07125 0.01
    endloop
  endfacet
  facet normal 0.707107 0.707107 -0
    outer loop
      vertex 0.07125 0.0295127 0
      vertex 0.0295127 0.07125 0.01
      vertex 0.07125 0.0295127 0.01
    endloop
  endfacet
  facet normal 0 1 0
    outer loop
      vertex 0.0295127 0.07125 0
      vertex -0.0295127 0.07125 0
      vertex -0.0295127 0.07125 0.01
    endloop
  endfacet
  facet normal 0 1 -0
    outer loop
      vertex 0.0295127 0.07125 0
      vertex -0.0295127 0.07125 0.01
      vertex 0.0295127 0.07125 0.01
    endloop
  endfacet
  facet normal -0.707107 0.707107 0
    outer loop
      vertex -0.0295127 0.07125 0
      vertex -0.07125 0.0295127 0
      vertex -0.07125 0.0295127 0.01
    endloop
  endfacet
  facet normal -0.707107 0.707107 0
    outer loop
      vertex -0.0295127 0.07125 0
      vertex -0.07125 0.0295127 0.01
      vertex -0.0295127 0.07125 0.01
    endloop
  endfacet
  facet normal -1 0 0
    outer loop
      vertex -0.07125 0.0295127 0
      vertex -0.07125 -0.0295127 0
      vertex -0.07125 -0.0295127 0.01
    endloop
  endfacet
  facet normal -1 0 0
    outer loop
      vertex -0.07125 0.0295127 0
      vertex -0.07125 -0.0295127 0.01
      vertex -0.07125 0.0295127 0.01
    endloop
  endfacet
  facet normal -0.707107 -0.707107 0
    outer loop
      vertex -0.07125 -0.0295127 0
      vertex -0.0295127 -0.07125 0
      vertex -0.0295127 -0.07125 0.01
    endloop
  endfacet
  facet normal -0.707107 -0.707107 0
    outer loop
      vertex -0.07125 -0.0295127 0
      vertex -0.0295127 -0.07125 0.01
      vertex -0.07125 -0.0295127 0.01
    endloop
  endfacet
  facet normal 2.35115e-16 -1 0
    outer loop
      vertex -0.0295127 -0.07125 0
      vertex 0.0295127 -0.07125 0
      vertex 0.0295127 -0.07125 0.01
    endloop
  endfacet
  facet normal 2.35115e-16 -1 0
    outer loop
      vertex -0.0295127 -0.07125 0
      vertex 0.0295127 -0.07125 0.01
      vertex -0.0295127 -0.07125 0.01
    endloop
  endfacet
  facet normal 0.707107 -0.707107 0
    outer loop
      vertex 0.0295127 -0.07125 0
      vertex 0.07125 -0.0295127 0
      vertex 0.07125 -0.0295127 0.01
    endloop
  endfacet
  facet normal 0.707107 -0.707107 0
    outer loop
      vertex 0.0295127 -0.07125 0
      vertex 0.07125 -0.0295127 0.01
      vertex 0.0295127 -0.07125 0.01
    endloop
  endfacet
  facet normal 1 0 0
    outer loop
      vertex 0.07125 -0.0295127 0
      vertex 0.07125 0.0295127 0
      vertex 0.07125 0.0295127 0.01
    endloop
  endfacet
  facet normal 1 0 0
    outer loop
      vertex 0.07125 -0.0295127 0
      vertex 0.07125 0.0295127 0.01
      vertex 0.07125 -0.0295127 0.01
    endloop
  endfacet
  facet normal 0 0 0
    outer loop
      vertex 0.07125 0.0295127 0
      vertex 0.07125 0.0295127 0
      vertex 0.07125 0.0295127 0.01
    endloop
  endfacet
  facet normal 0 0 0
    outer loop
      vertex 0.07125 0.0295127 0
      vertex 0.07125 0.0295127 0.01
      vertex 0.07125 0.0295127 0.01
    endloop
  endfacet
  facet normal 0.693812 0.693812 0.193005
    outer loop
      vertex 0.07125 0.0295127 0.01
      vertex 0.0295127 0.07125 0.01
      vertex 0.0272884 0.06588 0.0373
    endloop
  endfacet
  facet normal 0.693812 0.693812 0.193005
    outer loop
      vertex 0.07125 0.0295127 0.01
      vertex 0.0272884 0.06588 0.0373
      vertex 0.06588 0.0272884 0.0373
    endloop
  endfacet
  facet normal 0 0.981198 0.193005
    outer loop
      vertex 0.0295127 0.07125 0.01
      vertex -0.0295127 0.07125 0.01
      vertex -0.0272884 0.06588 0.0373
    endloop
  endfacet
  facet normal 0 0.981198 0.193005
    outer loop
      vertex 0.0295127 0.07125 0.01
      vertex -0.0272884 0.06588 0.0373
      vertex 0.0272884 0.06588 0.0373
    endloop
  endfacet
  facet normal -0.693812 0.693812 0.193005
    outer loop
      vertex -0.0295127 0.07125 0.01
      vertex -0.07125 0.0295127 0.01
      vertex -0.06588 0.0272884 0.0373
    endloop
  endfacet
  facet normal -0.693812 0.693812 0.193005
    outer loop
      vertex -0.0295127 0.07125 0.01
      vertex -0.06588 0.0272884 0.0373
      vertex -0.0272884 0.06588 0.0373
    endloop
  endfacet
  facet normal -0.981198 0 0.193005
    outer loop
      vertex -0.07125 0.0295127 0.01
      vertex -0.07125 -0.0295127 0.01
      vertex -0.06588 -0.0272884 0.0373
    endloop
  endfacet
  facet normal -0.981198 2.49899e-16 0.193005
    outer loop
      vertex -0.07125 0.0295127 0.01
      vertex -0.06588 -0.0272884 0.0373
      vertex -0.06588 0.0272884 0.0373
    endloop
  endfacet
  facet normal -0.693812 -0.693812 0.193005
    outer loop
      vertex -0.07125 -0.0295127 0.01
      vertex -0.0295127 -0.07125 0.01
      vertex -0.0272884 -0.06588 0.0373
    endloop
  endfacet
  facet normal -0.693812 -0.693812 0.193005
    outer loop
      vertex -0.07125 -0.0295127 0.01
      vertex -0.0272884 -0.06588 0.0373
      vertex -0.06588 -0.0272884 0.0373
    endloop
  endfacet
  facet normal 2.30695e-16 -0.981198 0.193005
    outer loop
      vertex -0.0295127 -0.07125 0.01
      vertex 0.0295127 -0.07125 0.01
      vertex 0.0272884 -0.06588 0.0373
    endloop
  endfacet
  facet normal 2.49899e-16 -0.981198 0.193005
    outer loop
      vertex -0.0295127 -0.07125 0.01
      vertex 0.0272884 -0.06588 0.0373
      vertex -0.0272884 -0.06588 0.0373
    endloop
  endfacet
  facet normal 0.693812 -0.693812 0.193005
    outer loop
      vertex 0.0295127 -0.07125 0.01
      vertex 0.07125 -0.0295127 0.01
      vertex 0.06588 -0.0272884 0.0373
    endloop
  endfacet
  facet normal 0.693812 -0.693812 0.193005
    outer loop
      vertex 0.0295127 -0.07125 0.01
      vertex 0.06588 -0.0272884 0.0373
      vertex 0.0272884 -0.06588 0.0373
    endloop
  endfacet
  facet normal 0.981198 -0 0.193005
    outer loop
      vertex 0.07125 -0.0295127 0.01
      vertex 0.07125 0.0295127 0.01
      vertex 0.06588 0.0272884 0.0373
    endloop
  endfacet
  facet normal 0.981198 2.49899e-16 0.193005
    outer loop
      vertex 0.07125 -0.0295127 0.01
      vertex 0.06588 0.0272884 0.0373
      vertex 0.06588 -0.0272884 0.0373
    endloop
  endfacet
  facet normal 0 -0 0
    outer loop
      vertex 0.07125 0.0295127 0.01
      vertex 0.07125 0.0295127 0.01
      vertex 0.06588 0.0272884 0.0373
    endloop
  endfacet
  facet normal 0 0 0
    outer loop
      vertex 0.07125 0.0295127 0.01
      vertex 0.06588 0.0272884 0.0373
      vertex 0.06588 0.0272884 0.0373
    endloop
  endfacet
  facet normal 0.693812 0.693812 0.193005
    outer loop
      vertex 0.06588 0.0272884 0.0373
      vertex 0.0272884 0.06588 0.0373
      vertex 0.0250641 0.06051 0.0646
    endloop
  endfacet
  facet normal 0.693812 0.693812 0.193005
    outer loop
      vertex 0.06588 0.0272884 0.0373
      vertex 0.0250641 0.06051 0.0646
      vertex 0.06051 0.0250641 0.0646
    endloop
  endfacet
  facet normal 0 0.981198 0.193005
    outer loop
      vertex 0.0272884 0.06588 0.0373
      vertex -0.0272884 0.06588 0.0373
      vertex -0.0250641 0.06051 0.0646
    endloop
  endfacet
  facet normal 0 0.981198 0.193005
    outer loop
      vertex 0.0272884 0.06588 0.0373
      vertex -0.0250641 0.06051 0.0646
      vertex 0.0250641 0.06051 0.0646
    endloop
  endfacet
  facet normal -0.693812 0.693812 0.193005
    outer loop
      vertex -0.0272884 0.06588 0.0373
      vertex -0.06588 0.0272884 0.0373
      vertex -0.06051 0.0250641 0.0646
    endloop
  endfacet
  facet normal -0.693812 0.693812 0.193005
    outer loop
      vertex -0.0272884 0.06588 0.0373
      vertex -0.06051 0.0250641 0.0646
      vertex -0.0250641 0.06051 0.0646
    endloop
  endfacet
  facet normal -0.981198 2.49499e-16 0.193005
    outer loop
      vertex -0.06588 0.0272884 0.0373
      vertex -0.06588 -0.0272884 0.0373
      vertex -0.06051 -0.0250641 0.0646
    endloop
  endfacet
  facet normal -0.981198 1.36038e-16 0.193005
    outer loop
      vertex -0.06588 0.0272884 0.0373
      vertex -0.06051 -0.0250641 0.0646
      vertex -0.06051 0.0250641 0.0646
    endloop
  endfacet
  facet normal -0.693812 -0.693812 0.193005
    outer loop
      vertex -0.06588 -0.0272884 0.0373
      vertex -0.0272884 -0.06588 0.0373
      vertex -0.0250641 -0.06051 0.0646
    endloop
  endfacet
  facet normal -0.693812 -0.693812 0.193005
    outer loop
      vertex -0.06588 -0.0272884 0.0373
      vertex -0.0250641 -0.06051 0.0646
      vertex -0.06051 -0.0250641 0.0646
    endloop
  endfacet
  facet normal 2.49499e-16 -0.981198 0.193005
    outer loop
      vertex -0.0272884 -0.06588 0.0373
      vertex 0.0272884 -0.06588 0.0373
      vertex 0.0250641 -0.06051 0.0646
    endloop
  endfacet
  facet normal 2.72076e-16 -0.981198 0.193005
    outer loop
      vertex -0.0272884 -0.06588 0.0373
      vertex 0.0250641 -0.06051 0.0646
      vertex -0.0250641 -0.06051 0.0646
    endloop
  endfacet
  facet normal 0.693812 -0.693812 0.193005
    outer loop
      vertex 0.0272884 -0.06588 0.0373
      vertex 0.06588 -0.0272884 0.0373
      vertex 0.06051 -0.0250641 0.0646
    endloop
  endfacet
  facet normal 0.693812 -0.693812 0.193005
    outer loop
      vertex 0.0272884 -0.06588 0.0373
      vertex 0.06051 -0.0250641 0.0646
      vertex 0.0250641 -0.06051 0.0646
    endloop
  endfacet
  facet normal 0.981198 2.49499e-16 0.193005
    outer loop
      vertex 0.06588 -0.0272884 0.0373
      vertex 0.06588 0.0272884 0.0373
      vertex 0.06051 0.0250641 0.0646
    endloop
  endfacet
  facet normal 0.981198 1.36038e-16 0.193005
    outer loop
      vertex 0.06588 -0.0272884 0.0373
      vertex 0.06051 0.0250641 0.0646
      vertex 0.06051 -0.0250641 0.0646
    endloop
  endfacet
  facet normal 0 -0 0
    outer loop
      vertex 0.06588 0.0272884 0.0373
      vertex 0.06588 0.0272884 0.0373
      vertex 0.06051 0.0250641 0.0646
    endloop
  endfacet
  facet normal 0 0 0
    outer loop
      vertex 0.06588 0.0272884 0.0373
      vertex 0.06051 0.0250641 0.0646
      vertex 0.06051 0.0250641 0.0646
    endloop
  endfacet
  facet normal 0.693812 0.693812 0.193005
    outer loop
      vertex 0.06051 0.0250641 0.0646
      vertex 0.0250641 0.06051 0.0646
      vertex 0.0228397 0.05514 0.0919
    endloop
  endfacet
  facet normal 0.693812 0.693812 0.193005
    outer loop
      vertex 0.06051 0.0250641 0.0646
      vertex 0.0228397 0.05514 0.0919
      vertex 0.05514 0.0228397 0.0919
    endloop
  endfacet
  facet normal 0 0.981198 0.193005
    outer loop
      vertex 0.0250641 0.06051 0.0646
      vertex -0.0250641 0.06051 0.0646
      vertex -0.0228397 0.05514 0.0919
    endloop
  endfacet
  facet normal 0 0.981198 0.193005
    outer loop
      vertex 0.0250641 0.06051 0.0646
      vertex -0.0228397 0.05514 0.0919
      vertex 0.0228397 0.05514 0.0919
    endloop
  endfacet
  facet normal -0.693812 0.693812 0.193005
    outer loop
      vertex -0.0250641 0.06051 0.0646
      vertex -0.06051 0.0250641 0.0646
      vertex -0.05514 0.0228397 0.0919
    endloop
  endfacet
  facet normal -0.693812 0.693812 0.193005
    outer loop
      vertex -0.0250641 0.06051 0.0646
      vertex -0.05514 0.0228397 0.0919
      vertex -0.0228397 0.05514 0.0919
    endloop
  endfacet
  facet normal -0.981198 1.35821e-16 0.193005
    outer loop
      vertex -0.06051 0.0250641 0.0646
      vertex -0.06051 -0.0250641 0.0646
      vertex -0.05514 -0.0228397 0.0919
    endloop
  endfacet
  facet normal -0.981198 1.49287e-16 0.193005
    outer loop
      vertex -0.06051 0.0250641 0.0646
      vertex -0.05514 -0.0228397 0.0919
      vertex -0.05514 0.0228397 0.0919
    endloop
  endfacet
  facet normal -0.693812 -0.693812 0.193005
    outer loop
      vertex -0.06051 -0.0250641 0.0646
      vertex -0.0250641 -0.06051 0.0646
      vertex -0.0228397 -0.05514 0.0919
    endloop
  endfacet
  facet normal -0.693812 -0.693812 0.193005
    outer loop
      vertex -0.06051 -0.0250641 0.0646
      vertex -0.0228397 -0.05514 0.0919
      vertex -0.05514 -0.0228397 0.0919
    endloop
  endfacet
  facet normal 2.71641e-16 -0.981198 0.193005
    outer loop
      vertex -0.0250641 -0.06051 0.0646
      vertex 0.0250641 -0.06051 0.0646
      vertex 0.0228397 -0.05514 0.0919
    endloop
  endfacet
  facet normal 2.98573e-16 -0.981198 0.193005
    outer loop
      vertex -0.0250641 -0.06051 0.0646
      vertex 0.0228397 -0.05514 0.0919
      vertex -0.0228397 -0.05514 0.0919
    endloop
  endfacet
  facet normal 0.693812 -0.693812 0.193005
    outer loop
      vertex 0.0250641 -0.06051 0.0646
      vertex 0.06051 -0.0250641 0.0646
      vertex 0.05514 -0.0228397 0.0919
    endloop
  endfacet
  facet normal 0.693812 -0.693812 0.193005
    outer loop
      vertex 0.0250641 -0.06051 0.0646
      vertex 0.05514 -0.0228397 0.0919
      vertex 0.0228397 -0.05514 0.0919
    endloop
  endfacet
  facet normal 0.981198 1.35821e-16 0.193005
    outer loop
      vertex 0.06051 -0.0250641 0.0646
      vertex 0.06051 0.0250641 0.0646
      vertex 0.05514 0.0228397 0.0919
    endloop
  endfacet
  facet normal 0.981198 1.49287e-16 0.193005
    outer loop
      vertex 0.06051 -0.0250641 0.0646
      vertex 0.05514 0.0228397 0.0919
      vertex 0.05514 -0.0228397 0.0919
    endloop
  endfacet
  facet normal 0 -0 0
    outer loop
      vertex 0.06051 0.0250641 0.0646
      vertex 0.06051 0.0250641 0.0646
      vertex 0.05514 0.0228397 0.0919
    endloop
  endfacet
  facet normal 0 0 0
    outer loop
      vertex 0.06051 0.0250641 0.0646
      vertex 0.05514 0.0228397 0.0919
      vertex 0.05514 0.0228397 0.0919
    endloop
  endfacet
  facet normal 0.693812 0.693812 0.193005
    outer loop
      vertex 0.05514 0.0228397 0.0919
      vertex 0.0228397 0.05514 0.0919
      vertex 0.0206154 0.04977 0.1192
    endloop
  endfacet
  facet normal 0.693812 0.693812 0.193005
    outer loop
      vertex 0.05514 0.0228397 0.0919
      vertex 0.0206154 0.04977 0.1192
      vertex 0.04977 0.0206154 0.1192
    endloop
  endfacet
  facet normal 0 0.981198 0.193005
    outer loop
      vertex 0.0228397 0.05514 0.0919
      vertex -0.0228397 0.05514 0.0919
      vertex -0.0206154 0.04977 0.1192
    endloop
  endfacet
  facet normal 0 0.981198 0.193005
    outer loop
      vertex 0.0228397 0.05514 0.0919
      vertex -0.0206154 0.04977 0.1192
      vertex 0.0206154 0.04977 0.1192
    endloop
  endfacet
  facet normal -0.693812 0.693812 0.193005
    outer loop
      vertex -0.0228397 0.05514 0.0919
      vertex -0.05514 0.0228397 0.0919
      vertex -0.04977 0.0206154 0.1192
    endloop
  endfacet
  facet normal -0.693812 0.693812 0.193005
    outer loop
      vertex -0.0228397 0.05514 0.0919
      vertex -0.04977 0.0206154 0.1192
      vertex -0.0206154 0.04977 0.1192
    endloop
  endfacet
  facet normal -0.981198 1.49048e-16 0.193005
    outer loop
      vertex -0.05514 0.0228397 0.0919
      vertex -0.05514 -0.0228397 0.0919
      vertex -0.04977 -0.0206154 0.1192
    endloop
  endfacet
  facet normal -0.981198 1.65394e-16 0.193005
    outer loop
      vertex -0.05514 0.0228397 0.0919
      vertex -0.04977 -0.0206154 0.1192
      vertex -0.04977 0.0206154 0.1192
    endloop
  endfacet
  facet normal -0.693812 -0.693812 0.193005
    outer loop
      vertex -0.05514 -0.0228397 0.0919
      vertex -0.0228397 -0.05514 0.0919
      vertex -0.0206154 -0.04977 0.1192
    endloop
  endfacet
  facet normal -0.693812 -0.693812 0.193005
    outer loop
      vertex -0.05514 -0.0228397 0.0919
      vertex -0.0206154 -0.04977 0.1192
      vertex -0.04977 -0.0206154 0.1192
    endloop
  endfacet
  facet normal 2.98096e-16 -0.981198 0.193005
    outer loop
      vertex -0.0228397 -0.05514 0.0919
      vertex 0.0228397 -0.05514 0.0919
      vertex 0.0206154 -0.04977 0.1192
    endloop
  endfacet
  facet normal 3.30788e-16 -0.981198 0.193005
    outer loop
      vertex -0.0228397 -0.05514 0.0919
      vertex 0.0206154 -0.04977 0.1192
      vertex -0.0206154 -0.04977 0.1192
    endloop
  endfacet
  facet normal 0.693812 -0.693812 0.193005
    outer loop
      vertex 0.0228397 -0.05514 0.0919
      vertex 0.05514 -0.0228397 0.0919
      vertex 0.04977 -0.0206154 0.1192
    endloop
  endfacet
  facet normal 0.693812 -0.693812 0.193005
    outer loop
      vertex 0.0228397 -0.05514 0.0919
      vertex 0.04977 -0.0206154 0.1192
      vertex 0.0206154 -0.04977 0.1192
    endloop
  endfacet
  facet normal 0.981198 1.49048e-16 0.193005
    outer loop
      vertex 0.05514 -0.0228397 0.0919
      vertex 0.05514 0.0228397 0.0919
      vertex 0.04977 0.0206154 0.1192
    endloop
  endfacet
  facet normal 0.981198 1.65394e-16 0.193005
    outer loop
      vertex 0.05514 -0.0228397 0.0919
      vertex 0.04977 0.0206154 0.1192
      vertex 0.04977 -0.0206154 0.1192
    endloop
  endfacet
  facet normal 0 -0 0
    outer loop
      vertex 0.05514 0.0228397 0.0919
      vertex 0.05514 0.0228397 0.0919
      vertex 0.04977 0.0206154 0.1192
    endloop
  endfacet
  facet normal 0 0 0
    outer loop
      vertex 0.05514 0.0228397 0.0919
      vertex 0.04977 0.0206154 0.1192
      vertex 0.04977 0.0206154 0.1192
    endloop
  endfacet
  facet normal 0.693812 0.693812 0.193005
    outer loop
      vertex 0.04977 0.0206154 0.1192
      vertex 0.0206154 0.04977 0.1192
      vertex 0.0183911 0.0444 0.1465
    endloop
  endfacet
  facet normal 0.693812 0.693812 0.193005
    outer loop
      vertex 0.04977 0.0206154 0.1192
      vertex 0.0183911 0.0444 0.1465
      vertex 0.0444 0.0183911 0.1465
    endloop
  endfacet
  facet normal 0 0.981198 0.193005
    outer loop
      vertex 0.0206154 0.04977 0.1192
      vertex -0.0206154 0.04977 0.1192
      vertex -0.0183911 0.0444 0.1465
    endloop
  endfacet
  facet normal 0 0.981198 0.193005
    outer loop
      vertex 0.0206154 0.04977 0.1192
      vertex -0.0183911 0.0444 0.1465
      vertex 0.0183911 0.0444 0.1465
    endloop
  endfacet
  facet normal -0.693812 0.693812 0.193005
    outer loop
      vertex -0.0206154 0.04977 0.1192
      vertex -0.04977 0.0206154 0.1192
      vertex -0.0444 0.0183911 0.1465
    endloop
  endfacet
  facet normal -0.693812 0.693812 0.193005
    outer loop
      vertex -0.0206154 0.04977 0.1192
      vertex -0.0444 0.0183911 0.1465
      vertex -0.0183911 0.0444 0.1465
    endloop
  endfacet
  facet normal -0.981198 1.6513e-16 0.193005
    outer loop
      vertex -0.04977 0.0206154 0.1192
      vertex -0.04977 -0.0206154 0.1192
      vertex -0.0444 -0.0183911 0.1465
    endloop
  endfacet
  facet normal -0.981198 0 0.193005
    outer loop
      vertex -0.04977 0.0206154 0.1192
      vertex -0.0444 -0.0183911 0.1465
      vertex -0.0444 0.0183911 0.1465
    endloop
  endfacet
  facet normal -0.693812 -0.693812 0.193005
    outer loop
      vertex -0.04977 -0.0206154 0.1192
      vertex -0.0206154 -0.04977 0.1192
      vertex -0.0183911 -0.0444 0.1465
    endloop
  endfacet
  facet normal -0.693812 -0.693812 0.193005
    outer loop
      vertex -0.04977 -0.0206154 0.1192
      vertex -0.0183911 -0.0444 0.1465
      vertex -0.0444 -0.0183911 0.1465
    endloop
  endfacet
  facet normal 3.30259e-16 -0.981198 0.193005
    outer loop
      vertex -0.0206154 -0.04977 0.1192
      vertex 0.0206154 -0.04977 0.1192
      vertex 0.0183911 -0.0444 0.1465
    endloop
  endfacet
  facet normal 1.85398e-16 -0.981198 0.193005
    outer loop
      vertex -0.0206154 -0.04977 0.1192
      vertex 0.0183911 -0.0444 0.1465
      vertex -0.0183911 -0.0444 0.1465
    endloop
  endfacet
  facet normal 0.693812 -0.693812 0.193005
    outer loop
      vertex 0.0206154 -0.04977 0.1192
      vertex 0.04977 -0.0206154 0.1192
      vertex 0.0444 -0.0183911 0.1465
    endloop
  endfacet
  facet normal 0.693812 -0.693812 0.193005
    outer loop
      vertex 0.0206154 -0.04977 0.1192
      vertex 0.0444 -0.0183911 0.1465
      vertex 0.0183911 -0.0444 0.1465
    endloop
  endfacet
  facet normal 0.981198 1.6513e-16 0.193005
    outer loop
      vertex 0.04977 -0.0206154 0.1192
      vertex 0.04977 0.0206154 0.1192
      vertex 0.0444 0.0183911 0.1465
    endloop
  endfacet
  facet normal 0.981198 0 0.193005
    outer loop
      vertex 0.04977 -0.0206154 0.1192
      vertex 0.0444 0.0183911 0.1465
      vertex 0.0444 -0.0183911 0.1465
    endloop
  endfacet
  facet normal 0 -0 0
    outer loop
      vertex 0.04977 0.0206154 0.1192
      vertex 0.04977 0.0206154 0.1192
      vertex 0.0444 0.0183911 0.1465
    endloop
  endfacet
  facet normal 0 0 0
    outer loop
      vertex 0.04977 0.0206154 0.1192
      vertex 0.0444 0.0183911 0.1465
      vertex 0.0444 0.0183911 0.1465
    endloop
  endfacet
  facet normal -0 -0 -1
    outer loop
      vertex 0.07125 0.0295127 0
      vertex 0.0295127 0.07125 0
      vertex 0.00791667 0.00327919 0
    endloop
  endfacet
  facet normal -0 -0 -1
    outer loop
      vertex 0.0295127 0.07125 0
      vertex -0.0295127 0.07125 0
      vertex 0.00791667 0.00327919 0
    endloop
  endfacet
  facet normal -0 -0 -1
    outer loop
      vertex -0.0295127 0.07125 0
      vertex -0.07125 0.0295127 0
      vertex 0.00791667 0.00327919 0
    endloop
  endfacet
  facet normal -0 -0 -1
    outer loop
      vertex -0.07125 0.0295127 0
      vertex -0.07125 -0.0295127 0
      vertex 0.00791667 0.00327919 0
    endloop
  endfacet
  facet normal 0 -0 -1
    outer loop
      vertex -0.07125 -0.0295127 0
      vertex -0.0295127 -0.07125 0
      vertex 0.00791667 0.00327919 0
    endloop
  endfacet
  facet normal -0 -0 -1
    outer loop
      vertex -0.0295127 -0.07125 0
      vertex 0.0295127 -0.07125 0
      vertex 0.00791667 0.00327919 0
    endloop
  endfacet
  facet normal -0 0 -1
    outer loop
      vertex 0.0295127 -0.07125 0
      vertex 0.07125 -0.0295127 0
      vertex 0.00791667 0.00327919 0
    endloop
  endfacet
  facet normal -0 0 -1
    outer loop
      vertex 0.07125 -0.0295127 0
      vertex 0.07125 0.0295127 0
      vertex 0.00791667 0.00327919 0
    endloop
  endfacet
  facet normal 0 0 1
    outer loop
      vertex 0.0444 0.0183911 0.1465
      vertex 0.0183911 0.0444 0.1465
      vertex 0.00493333 0.00204345 0.1465
    endloop
  endfacet
  facet normal 0 0 1
    outer loop
      vertex 0.0183911 0.0444 0.1465
      vertex -0.0183911 0.0444 0.1465
      vertex 0.00493333 0.00204345 0.1465
    endloop
  endfacet
  facet normal 0 0 1
    outer loop
      vertex -0.0183911 0.0444 0.1465
      vertex -0.0444 0.0183911 0.1465
      vertex 0.00493333 0.00204345 0.1465
    endloop
  endfacet
  facet normal 0 0 1
    outer loop
      vertex -0.0444 0.0183911 0.1465
      vertex -0.0444 -0.0183911 0.1465
      vertex 0.00493333 0.00204345 0.1465
    endloop
  endfacet
  facet normal -0 0 1
    outer loop
      vertex -0.0444 -0.0183911 0.1465
      vertex -0.0183911 -0.0444 0.1465
      vertex 0.00493333 0.00204345 0.1465
    endloop
  endfacet
  facet normal 0 0 1
    outer loop
      vertex -0.0183911 -0.0444 0.1465
      vertex 0.0183911 -0.0444 0.1465
      vertex 0.00493333 0.00204345 0.1465
    endloop
  endfacet
  facet normal 0 -0 1
    outer loop
      vertex 0.0183911 -0.0444 0.1465
      vertex 0.0444 -0.0183911 0.1465
      vertex 0.00493333 0.00204345 0.1465
    endloop
  endfacet
  facet normal 0 -0 1
    outer loop
      vertex 0.0444 -0.0183911 0.1465
      vertex 0.0444 0.0183911 0.1465
      vertex 0.00493333 0.00204345 0.1465
    endloop
  endfacet
endsolid mesh
